<svg xmlns="http://www.w3.org/2000/svg" width="144" height="111" viewBox="-0.896 -0.146 144 111">
  <path fill="#D21F3B" d="M9.977 99.685v6.426h1.62v1.418H6.561v-1.418h1.62v-2.632H3.415v2.632h1.621v1.418H0v-1.418h1.621v-6.426H0v-1.417h5.036v1.417H3.415v2.457h4.766v-2.457h-1.62v-1.417h5.036v1.417zM20.75 107.38c-.36.181-.738.271-1.134.271-.441 0-.81-.123-1.107-.365-.297-.243-.477-.585-.54-1.025-.441.485-.864.848-1.269 1.086s-.837.358-1.296.358c-.738 0-1.307-.252-1.708-.756-.4-.505-.6-1.242-.6-2.214v-2.229h-1.175v-1.336h2.862v3.537c0 .45.095.801.283 1.053.19.252.509.379.959.379.594 0 1.233-.379 1.917-1.135v-2.498h-1.066v-1.336h2.754v4.563c0 .343.13.514.391.514a.96.96 0 0 0 .378-.067l.351 1.2zM35.236 106.191v1.337h-3.929v-1.337h1.067v-2.281c0-.396-.097-.716-.29-.957-.194-.244-.471-.365-.83-.365-.675 0-1.346.404-2.012 1.215V106.192h1.066v1.337h-3.861v-1.337h1.107v-2.281c0-.396-.099-.716-.297-.957-.198-.244-.481-.365-.85-.365-.333 0-.673.105-1.02.316-.346.212-.686.524-1.019.938v2.35h1.094v1.337h-4.131v-1.337h1.349v-3.686h-1.349v-1.336h3.037v1.31c.379-.478.792-.842 1.242-1.095a2.86 2.86 0 0 1 1.418-.377c.513 0 .947.14 1.303.418.355.279.609.685.762 1.216.387-.522.815-.925 1.283-1.209a2.822 2.822 0 0 1 1.485-.425c.684 0 1.222.248 1.613.742.392.496.587 1.207.587 2.133v2.309h1.175zM43.443 107.353a1.805 1.805 0 0 1-.5.203 2.73 2.73 0 0 1-.689.081c-.341 0-.64-.098-.897-.291-.257-.193-.435-.467-.533-.816-.891.792-1.774 1.188-2.647 1.188-.621 0-1.142-.175-1.565-.521-.423-.346-.635-.844-.635-1.49 0-.451.126-.838.378-1.162.252-.324.583-.569.992-.736a3.434 3.434 0 0 1 1.303-.249c.396 0 .756.038 1.08.114.324.076.657.188.999.33v-.5c0-.358-.147-.629-.439-.809s-.668-.27-1.126-.27c-.676 0-1.495.185-2.458.553l-.337-1.282c1.088-.459 2.096-.688 3.024-.688.944 0 1.671.228 2.18.682.508.455.762 1.082.762 1.885v2.133c0 .35.131.525.392.525a.953.953 0 0 0 .378-.081l.338 1.201zm-5.508-1.208c.188.121.423.184.701.184.262 0 .576-.074.945-.218.37-.144.751-.364 1.148-.661v-.365a4.933 4.933 0 0 0-1.755-.31c-.369.009-.682.083-.938.224-.256.139-.385.344-.385.613 0 .234.095.411.284.533M48.357 106.191v1.337h-4.402v-1.337h1.35v-3.686h-1.35v-1.336h3.038v5.021h1.364zm-3.173-6.493c-.225-.181-.338-.399-.338-.661 0-.279.113-.509.338-.689.225-.18.504-.27.837-.27.351 0 .637.09.857.27.221.181.331.41.331.689 0 .27-.11.492-.331.668-.22.176-.506.264-.857.264-.333 0-.612-.09-.837-.271M58.266 106.191v1.337h-3.955v-1.337h1.106v-2.2c0-.432-.114-.774-.343-1.026-.23-.252-.556-.377-.979-.377-.684 0-1.423.449-2.215 1.35v2.254h1.094v1.337h-4.131v-1.337h1.35v-3.686h-1.35v-1.336h3.037v1.459c.487-.549.952-.957 1.398-1.223a2.755 2.755 0 0 1 1.438-.398c.774 0 1.365.252 1.775.756s.614 1.242.614 2.214v2.214h1.161zM64.159 104.518c.437.352.654.811.654 1.377 0 .352-.103.666-.31.945s-.49.494-.851.648c-.359.152-.76.229-1.201.229a3.75 3.75 0 0 1-1.282-.218 3.344 3.344 0 0 1-1.08-.62v.661H58.86v-2.092l.742-.067c.271.342.653.635 1.148.878.495.242.954.363 1.377.363.297 0 .527-.051.688-.154a.482.482 0 0 0 .243-.426c0-.197-.128-.373-.384-.526-.256-.151-.713-.319-1.37-.499-.81-.227-1.422-.507-1.836-.844a1.619 1.619 0 0 1-.621-1.316c0-.342.094-.654.283-.939.189-.282.455-.506.797-.674.341-.166.738-.25 1.188-.25.837 0 1.543.266 2.119.797v-.621h1.229v2.078l-.742.068a2.628 2.628 0 0 0-.939-.904 2.41 2.41 0 0 0-1.195-.324c-.288 0-.525.054-.708.162-.185.107-.278.246-.278.418 0 .189.124.354.371.494.249.139.683.297 1.303.479.82.232 1.447.525 1.884.877M78.368 107.719c-.666 0-1.336-.15-2.012-.447a6.778 6.778 0 0 1-2.523.459c-.756 0-1.428-.105-2.012-.317-.586-.211-1.045-.517-1.378-.918-.333-.399-.5-.87-.5-1.41 0-.63.219-1.159.655-1.586.437-.428 1.118-.804 2.045-1.128a6.448 6.448 0 0 1-.107-1.255c0-.56.121-1.063.364-1.521a2.84 2.84 0 0 1 .999-1.08 2.648 2.648 0 0 1 1.432-.396c.485 0 .912.094 1.281.283s.65.441.844.756.291.661.291 1.04c0 .656-.279 1.246-.836 1.769-.56.521-1.343.926-2.351 1.215.198.513.454.98.771 1.403.314.425.666.783 1.052 1.08.36-.233.64-.508.838-.823.198-.314.297-.644.297-.985a1.59 1.59 0 0 0-.088-.554 3.26 3.26 0 0 0-.263-.541l1.457-.633c.153.217.281.469.385.762s.156.605.156.938c0 .396-.115.821-.344 1.276a4.3 4.3 0 0 1-.98 1.248c.136.027.266.041.392.041.56 0 1.058-.072 1.499-.215l.27 1.309a6.445 6.445 0 0 1-1.634.23m-3.551-1.459a6.633 6.633 0 0 1-1.822-2.619c-.504.18-.869.371-1.094.574a.962.962 0 0 0-.338.748c0 .433.212.772.635 1.02.424.248.977.371 1.66.371.351 0 .672-.032.959-.094m0-6.602c-.181.126-.33.311-.451.553-.123.243-.184.54-.184.891 0 .298.018.559.055.785 1.232-.397 1.85-.951 1.85-1.662 0-.233-.066-.418-.196-.553a.687.687 0 0 0-.519-.203.955.955 0 0 0-.555.189M92.636 101.48v-1.795h-4.428v2.606h1.783v-1.162h1.336v3.604h-1.336v-1.159h-1.783v2.536h4.428v-1.795h1.567v3.213h-9.356v-1.418h1.607v-6.425h-1.607v-1.417h9.356v3.212zM104.854 106.191v1.337h-3.955v-1.337h1.106v-2.2c0-.432-.114-.774-.343-1.026-.23-.252-.557-.377-.979-.377-.685 0-1.423.449-2.215 1.35v2.254h1.094v1.337h-4.131v-1.337h1.351v-3.686h-1.351v-1.336h3.037v1.459c.487-.549.952-.957 1.397-1.223s.926-.398 1.438-.398c.774 0 1.365.252 1.774.756.41.504.615 1.242.615 2.214v2.214h1.162zM111.874 106.685c.378.302.568.735.568 1.303 0 .495-.192.927-.576 1.296-.381.369-.896.652-1.543.85a7.303 7.303 0 0 1-2.147.297c-.909 0-1.653-.161-2.233-.485-.582-.323-.871-.778-.871-1.362 0-.469.246-.91.742-1.324-.352-.297-.527-.656-.527-1.08 0-.62.33-1.137.986-1.551a1.924 1.924 0 0 1-.486-1.311c0-.486.148-.904.445-1.256.297-.35.676-.616 1.135-.797.459-.18.922-.27 1.39-.27.522 0 .999.086 1.431.258.153-.469.42-.82.797-1.054.379-.233.828-.356 1.35-.364v1.377c-.314.008-.587.047-.816.114s-.425.183-.587.345c.54.422.81.959.81 1.605 0 .486-.148.904-.445 1.256s-.676.616-1.135.797a3.81 3.81 0 0 1-1.403.27c-.647 0-1.228-.135-1.741-.405-.181.198-.271.392-.271.581 0 .216.08.373.238.473.156.098.371.148.641.148.287 0 .703-.027 1.242-.081a17.919 17.919 0 0 1 1.525-.081c.607-.002 1.103.149 1.481.451m-1.715 2.118c.496-.184.744-.424.744-.721 0-.199-.073-.338-.217-.419-.145-.081-.369-.12-.675-.12-.198 0-.55.025-1.054.08-.63.071-1.184.107-1.66.107-.207 0-.414-.021-.621-.067a1.125 1.125 0 0 0-.162.554c0 .279.16.494.479.642.32.149.791.224 1.412.224.675-.001 1.26-.095 1.754-.28m-2.356-6.317a1.04 1.04 0 0 0-.371.83c0 .333.124.602.371.803.248.203.569.305.967.305.387 0 .703-.106.95-.317a1.04 1.04 0 0 0 .372-.831.984.984 0 0 0-.372-.803c-.247-.202-.563-.303-.95-.303-.397 0-.719.104-.967.316M120.624 107.353a1.818 1.818 0 0 1-.5.203 2.736 2.736 0 0 1-.689.081c-.342 0-.641-.098-.896-.291a1.478 1.478 0 0 1-.533-.816c-.892.792-1.774 1.188-2.647 1.188-.621 0-1.142-.175-1.565-.521-.423-.346-.635-.844-.635-1.49 0-.451.126-.838.378-1.162.253-.324.583-.569.992-.736a3.439 3.439 0 0 1 1.304-.249c.396 0 .756.038 1.079.114.324.076.657.188.999.33v-.5c0-.358-.146-.629-.439-.809-.291-.18-.668-.27-1.125-.27-.676 0-1.495.185-2.459.553l-.336-1.282c1.088-.459 2.096-.688 3.023-.688.944 0 1.671.228 2.18.682.508.455.763 1.082.763 1.885v2.133c0 .35.131.525.392.525a.953.953 0 0 0 .378-.081l.336 1.201zm-5.509-1.208c.188.121.423.184.701.184.262 0 .576-.074.944-.218a4.877 4.877 0 0 0 1.148-.661v-.365a4.933 4.933 0 0 0-1.755-.31c-.369.009-.683.083-.938.224-.256.139-.385.344-.385.613a.598.598 0 0 0 .285.533M127.642 106.685c.378.302.567.735.567 1.303 0 .495-.191.927-.574 1.296-.381.369-.897.652-1.545.85a7.291 7.291 0 0 1-2.146.297c-.908 0-1.654-.161-2.234-.485-.58-.323-.871-.778-.871-1.362 0-.469.248-.91.742-1.324-.351-.297-.526-.656-.526-1.08 0-.62.329-1.137.985-1.551a1.932 1.932 0 0 1-.485-1.311c0-.486.149-.904.446-1.256.297-.35.674-.616 1.133-.797.459-.18.923-.27 1.391-.27.521 0 .999.086 1.432.258.152-.469.418-.82.797-1.054.377-.233.828-.356 1.349-.364v1.377a3.213 3.213 0 0 0-.815.114c-.23.067-.426.183-.588.345.54.422.811.959.811 1.605 0 .486-.149.904-.446 1.256s-.675.616-1.134.797a3.82 3.82 0 0 1-1.404.27c-.648 0-1.229-.135-1.74-.405-.182.198-.271.392-.271.581 0 .216.08.373.236.473.157.098.371.148.642.148.288 0 .702-.027 1.243-.081a17.878 17.878 0 0 1 1.525-.081c.607-.002 1.102.149 1.48.451m-1.714 2.118c.494-.184.742-.424.742-.721 0-.199-.072-.338-.215-.419-.146-.081-.369-.12-.676-.12-.197 0-.55.025-1.054.08-.63.071-1.183.107-1.66.107-.207 0-.414-.021-.621-.067a1.133 1.133 0 0 0-.161.554c0 .279.159.494.479.642.32.149.789.224 1.412.224.674-.001 1.259-.095 1.754-.28m-2.356-6.317c-.247.211-.37.488-.37.83 0 .333.123.602.37.803.248.203.569.305.966.305.387 0 .705-.106.951-.317a1.04 1.04 0 0 0 .372-.831.984.984 0 0 0-.372-.803c-.246-.202-.564-.303-.951-.303-.397 0-.718.104-.966.316M135.472 106.557a4.64 4.64 0 0 1-3.118 1.161c-.63 0-1.222-.127-1.775-.379-.554-.251-1-.62-1.343-1.106s-.514-1.066-.514-1.742c0-.701.171-1.315.514-1.842.343-.527.796-.934 1.363-1.222s1.17-.433 1.81-.433c.557 0 1.055.086 1.491.257s.778.411 1.025.722c.248.311.37.669.37 1.073 0 .405-.122.754-.37 1.047a2.22 2.22 0 0 1-.972.654c-.4.145-.83.216-1.289.216-.433 0-.83-.045-1.195-.135a7.742 7.742 0 0 1-1.127-.379c.009.578.212 1.029.607 1.357.396.329.887.493 1.471.493a3.634 3.634 0 0 0 2.35-.851l.702 1.109zm-4.097-3.909a2.175 2.175 0 0 0-.83.883 5.065 5.065 0 0 0 1.714.298c.405-.009.731-.081.979-.216.247-.135.37-.324.37-.567 0-.216-.099-.392-.297-.526-.196-.135-.459-.201-.782-.201a2.194 2.194 0 0 0-1.154.329m-.101-2.558l3.024-1.809-.878-1.242-2.605 2.402.459.649zM141.703 104.518c.437.352.654.811.654 1.377 0 .352-.103.666-.31.945s-.49.494-.852.648c-.359.152-.76.229-1.201.229-.449 0-.877-.072-1.281-.218a3.333 3.333 0 0 1-1.08-.62v.661h-1.229v-2.092l.742-.067c.271.342.653.635 1.147.878.495.242.954.363 1.377.363.297 0 .527-.051.688-.154a.482.482 0 0 0 .243-.426c0-.197-.129-.373-.385-.526-.256-.151-.713-.319-1.369-.499-.811-.227-1.422-.507-1.836-.844a1.619 1.619 0 0 1-.621-1.316c0-.342.094-.654.283-.939a1.98 1.98 0 0 1 .797-.674c.341-.166.738-.25 1.188-.25.837 0 1.543.266 2.119.797v-.621h1.229v2.078l-.742.068a2.625 2.625 0 0 0-.938-.904 2.406 2.406 0 0 0-1.194-.324c-.289 0-.525.054-.709.162-.185.107-.277.246-.277.418 0 .189.123.354.371.494.248.139.683.297 1.303.479.819.232 1.446.525 1.883.877M117.124 46.185c2.362 22.278-20.754 49.093-45.905 45.905-23.964-3.037-47.254-21.265-45.904-45.905C26.701 20.871 49.616 2.981 71.218.28c25.157-3.144 43.232 20.694 45.906 45.905"/>
  <path fill="#FFF" d="M50.42 66.347c1.712 3.234 4.847 5.953 8.524 7.552a21.95 21.95 0 0 0 5.84 1.635c.507.059 1.017.105 1.526.154.51.032 1.024.037 1.535.053.513.006 1.027-.031 1.538-.051l.192-.009.16-.007.087-.01.346-.039.694-.08c4.092-.512 7.794-1.952 11.091-3.773 3.295-1.822 6.158-4.009 8.695-6.182.623-.531.27-.997-.408-.538-2.833 1.933-5.912 3.546-9.135 4.685a33.04 33.04 0 0 1-4.908 1.332l-1.243.209-1.245.15-1.245.092c-.411.024-.806.019-1.206.031a8.903 8.903 0 0 1-.63-.003l-.657-.019-.329-.008-.082-.002h-.02c.091-.004.02-.002.037-.003l-.009-.001-.038-.003-.152-.014-.605-.056a11.858 11.858 0 0 1-1.201-.147 12.305 12.305 0 0 1-1.188-.21 23.27 23.27 0 0 1-4.544-1.419c-2.881-1.259-5.419-3.077-7.315-5.296-.321-.413-.699-.745-.963-.991a3.584 3.584 0 0 0-.683-.461 4.333 4.333 0 0 0-.241-.166c-.641-.409-1.249-.502-1.736-.331-.486.171-.849.607-.999 1.26-.069.328-.111.7-.039 1.139.095.447.273.973.556 1.527M55.904 50.114c0 1.188.594 1.069 1.267 1.346.594.238.911.673.911 1.505 0 1.267-.752 2.059-2.851 2.059-1.466 0-2.456-.396-3.366-1.663-1.466 1.188-3.129 1.782-5.346 1.782-4.594 0-7.049-2.495-7.049-6.257v-.119c0-4.039 2.614-6.059 7.841-6.059 1.069 0 2.098.08 3.128.396v-1.267c0-1.861-.99-2.732-3.01-2.732-1.108 0-1.782.277-2.574.633-.316.119-.752.396-1.504.396-1.664 0-2.297-1.306-2.297-2.296 0-2.337 3.485-3.287 6.771-3.287 5.743 0 8.079 2.851 8.079 8.197v7.366zm-11.009-1.307v.119c0 1.307.752 1.821 2.455 1.821 1.03 0 2.059-.237 3.089-1.029v-2.851c-.99-.199-2.02-.317-2.812-.317-2.296 0-2.732 1.069-2.732 2.257M68.852 34.55c2.574 0 6.416.634 6.416 3.366 0 1.703-1.506 2.02-2.338 2.02-1.385 0-2.098-.832-4.038-.832-1.505 0-2.297.515-2.297 1.426 0 .554.317.95 1.188 1.307 2.851 1.227 8.039 1.782 8.039 7.049 0 3.841-2.733 6.256-7.722 6.256-2.535 0-7.128-.633-7.128-3.088 0-1.149 1.029-2.337 2.574-2.337 1.306 0 2.534.871 4.475.871 1.426 0 2.416-.475 2.416-1.583 0-.713-.397-1.03-.832-1.268-2.574-1.425-8.396-1.544-8.396-7.049 0-3.643 2.574-6.138 7.643-6.138M85.208 39.976c.039.278.078.515.078.753v11.959c0 1.386-1.188 2.455-2.731 2.455-1.545 0-2.733-1.069-2.733-2.455V40.729c0-.911-.119-1.386-.436-1.861-.316-.397-.555-.713-.555-1.308 0-1.425 1.268-2.375 2.693-2.375.832 0 1.545.514 2.1 1.227 1.82-1.069 3.643-1.703 4.91-1.703 2.494 0 3.246 1.03 3.246 2.376 0 1.545-1.267 2.574-2.771 2.495-1.703-.08-2.416-.159-3.801.396M94.987 50.47V28.729c0-1.307 1.188-2.456 2.733-2.456 1.544 0 2.731 1.07 2.731 2.456v21.266c0 .831.041 1.029.595 1.623.396.436.713.634.713 1.386 0 1.426-1.108 2.139-2.97 2.139-1.583 0-3.802-.515-3.802-4.673"/>
  <path fill="#B0C836" d="M128.27 77.546l-.553-.081.034-.229c.237-3.11-.687-6.822-3.796-7.059l-1.428.975c-2.933-.223-5.531 1.855-6.018 4.699-2.99-.102-6.32.883-6.545 3.822l.975 1.428c-.223 2.929 1.849 5.524 4.688 6.016l-.043.566c-.237 3.109 2.113 5.847 5.225 6.084 3.108.235 5.038-2.176 5.274-5.285l.08-.536 1.308.1c3.109.236 5.848-2.114 6.083-5.224.238-3.11-2.175-5.039-5.284-5.276"/>
</svg>
